<svg xmlns="http://www.w3.org/2000/svg" viewBox="0 0 48 48" width="48" height="48">
  <rect x="0" y="0" width="48" height="48" rx="10" fill="#100C0A"/>
  <rect x="1.5" y="1.5" width="45" height="45" rx="10" fill="#16110D" stroke="rgba(244,236,222,.16)" stroke-width="1"/>
  <text x="8" y="34" font-family="Archivo, 'Arial Black', sans-serif" font-weight="800" font-size="27" fill="#E8A33D">R</text>
  <g stroke="#E8A33D" stroke-width="1.5" fill="none" stroke-linecap="round" opacity="0.9">
    <path d="M28.5 25 C34 25 35 11 40 11"/>
    <path d="M28.5 25 C34 25 35 18 40 18"/>
    <path d="M28.5 25 C35 25 37 25 41.5 25"/>
    <path d="M28.5 25 C34 25 35 32 40 32"/>
    <path d="M28.5 25 C34 25 35 39 40 39"/>
  </g>
  <circle cx="27" cy="25" r="2.2" fill="#E8A33D"/>
  <circle cx="40" cy="11" r="2.2" fill="#F4ECDE"/>
  <circle cx="40" cy="18" r="2.2" fill="#F4ECDE"/>
  <circle cx="41.5" cy="25" r="2.2" fill="#E8A33D"/>
  <circle cx="40" cy="32" r="2.2" fill="#F4ECDE"/>
  <circle cx="40" cy="39" r="2.2" fill="#F4ECDE"/>
</svg>
